<svg xmlns="http://www.w3.org/2000/svg" version="1.0" viewBox="0 0 300 300"><path d="M86 29.2c-2.7 1-4.6 2.9-13.1 12.8-19.1 22.2-34.5 54.9-41.4 87.6-3.4 16.4-5.2 41.1-3.8 53.4 2.2 18.7 11.6 37.3 26.3 51.9 43 42.5 122.2 48.8 174.8 13.8 25.1-16.7 40.4-39.9 43.4-65.8.9-7.5.9-13.6 0-25.6-3.1-40.7-16.7-78.1-39-107.5-13.8-18.1-19-22.6-24.1-20.6-6 2.2-27 29.3-34.1 43.8l-2.2 4.5h-45.6L125 73c-3.8-8-16.6-26.3-24-34.5-8.1-8.9-11.2-10.8-15-9.3zm0 137.4v27.5l-2.2-.6c-11-3.1-23.7-13.1-28.7-22.6l-2.5-4.6 2.6-4.4c3.6-6.1 8.9-12 13.6-15.3 3.6-2.5 14.5-7.5 16.5-7.6.4 0 .7 12.4.7 27.6zm25.9-23.7c3 1.4 7.6 4.5 10.2 6.9 5.2 4.7 11.9 14.1 11.9 16.8 0 2.8-5.8 11.1-11.4 16.1-4.6 4.1-13.3 9-19.3 10.8l-2.3.6V139l2.8.6c1.5.4 5.1 1.8 8.1 3.3zm87.1 23.7v27.5l-2.2-.6c-6.1-1.8-14.8-6.7-19.4-10.8-5.5-5-11.4-13.3-11.4-16.1 0-4.3 9.9-16.2 17.5-21.1 4.3-2.8 12.3-6.3 14.8-6.5.4 0 .7 12.4.7 27.6zm25.7-23.6c7.1 3.3 16.6 12.2 20.2 19.1l2.5 4.6-2.9 4.9c-5.7 9.7-17.5 18.8-28.2 21.9l-2.3.6v-55.2l2.3.6c1.2.4 5 1.9 8.4 3.5z"/></svg>